<svg xmlns="http://www.w3.org/2000/svg" version="1.1" xmlns:xlink="http://www.w3.org/1999/xlink" xmlns:svgjs="http://svgjs.dev/svgjs" width="1000" height="1000" viewBox="0 0 1000 1000"><rect width="1000" height="1000" fill="#77d4fc"></rect><g transform="matrix(0.7,0,0,0.7,149.57575757575756,391.7643601732645)"><svg viewBox="0 0 396 123" data-background-color="#77d4fc" preserveAspectRatio="xMidYMid meet" height="310" width="1000" xmlns="http://www.w3.org/2000/svg" xmlns:xlink="http://www.w3.org/1999/xlink"><g id="tight-bounds" transform="matrix(1,0,0,1,0.2400000000000091,-0.14984470650475146)"><svg viewBox="0 0 395.52 123.2996894130095" height="123.2996894130095" width="395.52"><g><svg viewBox="0 0 574.1927450210144 178.9992595173302" height="123.2996894130095" width="395.52"><g><rect width="5.59596547319731" height="178.9992595173302" x="158.42765527243145" y="0" fill="#0080ff" opacity="1" stroke-width="0" stroke="transparent" fill-opacity="1" class="rect-o-0" data-fill-palette-color="primary" rx="1%" id="o-0" data-palette-color="#0080ff"></rect></g><g transform="matrix(1,0,0,1,178.67274502101438,0.44527178984409943)"><svg viewBox="0 0 395.52 178.108715937642" height="178.108715937642" width="395.52"><g><svg viewBox="0 0 395.52 178.108715937642" height="178.108715937642" width="395.52"><g><svg viewBox="0 0 395.52 134.53415952537904" height="134.53415952537904" width="395.52"><g transform="matrix(1,0,0,1,0,0)"><svg width="395.52" viewBox="0.20000076293945312 -34.400001525878906 228.45001220703125 73.75000762939453" height="134.53415952537904" data-palette-color="#0080ff"><svg></svg><svg></svg><g class="undefined-text-0" data-fill-palette-color="primary" id="text-0"><path xmlns="http://www.w3.org/2000/svg" d="M23.15-34.4l-8.3 15.8 9.35 18.6h-5l-7.15-15.45-7.05 15.45h-4.8l9.1-18.4-8.3-16h5l6.15 13.05 6.2-13.05zM28.65-34.4h4.65v30.45h12.55l-0.5 3.95h-16.7zM72.5 0h-4.8l-2.3-8.75h-11.55l-2.3 8.75h-4.65l9.95-34.4h5.7zM59.65-30.7l-4.85 18.3h9.65zM90.8-18.2c5 0.867 7.5 3.7 7.5 8.5v0c0 3.267-1.1 5.7-3.3 7.3-2.2 1.6-5.233 2.4-9.1 2.4v0h-8.8v-34.4h7.45c3.967 0 7.017 0.733 9.15 2.2 2.133 1.467 3.2 3.617 3.2 6.45v0c0 2.033-0.557 3.69-1.67 4.97-1.12 1.287-2.597 2.147-4.43 2.58zM85-30.85h-3.25v11.1h4.3c1.933 0 3.443-0.493 4.53-1.48 1.08-0.98 1.62-2.353 1.62-4.12v0c0-1.933-0.59-3.333-1.77-4.2-1.187-0.867-2.997-1.3-5.43-1.3zM85.95-3.65c2.433 0 4.3-0.477 5.6-1.43 1.3-0.947 1.95-2.52 1.95-4.72v0c0-4.333-2.35-6.5-7.05-6.5v0h-4.7v12.65zM123.3-34.4c2.967 0 5.55 0.45 7.75 1.35 2.2 0.9 3.993 2.6 5.38 5.1 1.38 2.5 2.07 6.017 2.07 10.55v0c0 6.467-1.373 10.983-4.12 13.55-2.753 2.567-6.23 3.85-10.43 3.85v0h-7.75v-34.4zM124-30.75h-3.15v27.15h3.4c2.867 0 5.15-0.993 6.85-2.98 1.7-1.98 2.55-5.587 2.55-10.82v0c0-3.667-0.44-6.483-1.32-8.45-0.887-1.967-2.02-3.277-3.4-3.93-1.387-0.647-3.03-0.97-4.93-0.97zM166.95 0h-4.8l-2.3-8.75h-11.55l-2.3 8.75h-4.65l9.95-34.4h5.7zM154.1-30.7l-4.85 18.3h9.65zM167.85-34.4h22.35l-0.55 3.8h-8.45v30.6h-4.65v-30.6h-8.7zM216.4 0h-4.8l-2.3-8.75h-11.55l-2.3 8.75h-4.65l9.95-34.4h5.7zM203.55-30.7l-4.85 18.3h9.65z" fill="#0080ff" fill-rule="nonzero" stroke="none" stroke-width="1" stroke-linecap="butt" stroke-linejoin="miter" stroke-miterlimit="10" stroke-dasharray="" stroke-dashoffset="0" font-family="none" font-weight="none" font-size="none" text-anchor="none" style="mix-blend-mode: normal" data-fill-palette-color="primary" opacity="1"></path><path xmlns="http://www.w3.org/2000/svg" d="M12.4 3.65c2.033 0 3.81 0.333 5.33 1 1.513 0.667 2.937 1.667 4.27 3v0l-2.35 2.65c-1.133-1-2.257-1.743-3.37-2.23-1.12-0.48-2.33-0.72-3.63-0.72v0c-1.667 0-3.007 0.457-4.02 1.37-1.02 0.92-1.53 2.13-1.53 3.63v0c0 1 0.2 1.857 0.6 2.57 0.4 0.72 1.083 1.37 2.05 1.95 0.967 0.587 2.333 1.18 4.1 1.78v0c2.033 0.733 3.7 1.517 5 2.35 1.3 0.833 2.3 1.9 3 3.2 0.7 1.3 1.05 2.933 1.05 4.9v0c0 1.967-0.45 3.723-1.35 5.27-0.9 1.553-2.19 2.77-3.87 3.65-1.687 0.887-3.663 1.33-5.93 1.33v0c-4.167 0-7.717-1.5-10.65-4.5v0l2.45-2.65c1.233 1.1 2.493 1.94 3.78 2.52 1.28 0.587 2.703 0.88 4.27 0.88v0c1.967 0 3.54-0.56 4.72-1.68 1.187-1.113 1.78-2.653 1.78-4.62v0c0-1.7-0.473-3.05-1.42-4.05-0.953-1-2.697-1.933-5.23-2.8v0c-3.233-1.133-5.557-2.45-6.97-3.95-1.42-1.5-2.13-3.45-2.13-5.85v0c0-1.7 0.427-3.243 1.28-4.63 0.847-1.38 2.037-2.453 3.57-3.22 1.533-0.767 3.267-1.15 5.2-1.15zM40.5 3.65c4.1 0 7.323 1.507 9.67 4.52 2.353 3.02 3.53 7.463 3.53 13.33v0c0 5.767-1.167 10.183-3.5 13.25-2.333 3.067-5.567 4.6-9.7 4.6v0c-4.1 0-7.323-1.51-9.67-4.53-2.353-3.013-3.53-7.437-3.53-13.27v0c0-3.833 0.543-7.093 1.63-9.78 1.08-2.68 2.61-4.703 4.59-6.07 1.987-1.367 4.313-2.05 6.98-2.05zM40.5 7.35c-5.533 0-8.3 4.733-8.3 14.2v0c0 9.367 2.767 14.05 8.3 14.05v0c2.733 0 4.8-1.117 6.2-3.35 1.4-2.233 2.1-5.817 2.1-10.75v0c0-4.9-0.71-8.483-2.13-10.75-1.413-2.267-3.47-3.4-6.17-3.4zM60.45 4.3h4.65v30.45h12.55l-0.5 3.95h-16.7zM104.05 4.3v24.3c0 3.167-0.95 5.75-2.85 7.75-1.9 2-4.617 3-8.15 3v0c-3.567 0-6.283-0.993-8.15-2.98-1.867-1.98-2.8-4.57-2.8-7.77v0-24.3h4.65v24c0 4.833 2.1 7.25 6.3 7.25v0c4.2 0 6.3-2.417 6.3-7.25v0-24zM108.3 4.3h22.35l-0.55 3.8h-8.45v30.6h-4.65v-30.6h-8.7zM135.15 4.3h4.65v34.4h-4.65zM159.7 3.65c4.1 0 7.327 1.507 9.68 4.52 2.347 3.02 3.52 7.463 3.52 13.33v0c0 5.767-1.167 10.183-3.5 13.25-2.333 3.067-5.567 4.6-9.7 4.6v0c-4.1 0-7.323-1.51-9.67-4.53-2.353-3.013-3.53-7.437-3.53-13.27v0c0-3.833 0.543-7.093 1.63-9.78 1.08-2.68 2.61-4.703 4.59-6.07 1.987-1.367 4.313-2.05 6.98-2.05zM159.7 7.35c-5.533 0-8.3 4.733-8.3 14.2v0c0 9.367 2.767 14.05 8.3 14.05v0c2.733 0 4.8-1.117 6.2-3.35 1.4-2.233 2.1-5.817 2.1-10.75v0c0-4.9-0.707-8.483-2.12-10.75-1.42-2.267-3.48-3.4-6.18-3.4zM201.5 4.3v34.4h-6l-12.25-29.55c0.4 4.4 0.6 8.683 0.6 12.85v0 16.7h-4.2v-34.4h5.95l12.3 29.6c-0.133-1.167-0.273-2.767-0.42-4.8-0.153-2.033-0.23-4.05-0.23-6.05v0-18.75zM218.15 3.65c2.033 0 3.807 0.333 5.32 1 1.52 0.667 2.947 1.667 4.28 3v0l-2.35 2.65c-1.133-1-2.257-1.743-3.37-2.23-1.12-0.48-2.33-0.72-3.63-0.72v0c-1.667 0-3.007 0.457-4.02 1.37-1.02 0.92-1.53 2.13-1.53 3.63v0c0 1 0.2 1.857 0.6 2.57 0.4 0.72 1.083 1.37 2.05 1.95 0.967 0.587 2.333 1.18 4.1 1.78v0c2.033 0.733 3.7 1.517 5 2.35 1.3 0.833 2.3 1.9 3 3.2 0.7 1.3 1.05 2.933 1.05 4.9v0c0 1.967-0.45 3.723-1.35 5.27-0.9 1.553-2.19 2.77-3.87 3.65-1.687 0.887-3.663 1.33-5.93 1.33v0c-4.167 0-7.717-1.5-10.65-4.5v0l2.45-2.65c1.233 1.1 2.49 1.94 3.77 2.52 1.287 0.587 2.713 0.88 4.28 0.88v0c1.967 0 3.54-0.56 4.72-1.68 1.187-1.113 1.78-2.653 1.78-4.62v0c0-1.7-0.473-3.05-1.42-4.05-0.953-1-2.697-1.933-5.23-2.8v0c-3.233-1.133-5.56-2.45-6.98-3.95-1.413-1.5-2.12-3.45-2.12-5.85v0c0-1.7 0.427-3.243 1.28-4.63 0.847-1.38 2.037-2.453 3.57-3.22 1.533-0.767 3.267-1.15 5.2-1.15z" fill="#0080ff" fill-rule="nonzero" stroke="none" stroke-width="1" stroke-linecap="butt" stroke-linejoin="miter" stroke-miterlimit="10" stroke-dasharray="" stroke-dashoffset="0" font-family="none" font-weight="none" font-size="none" text-anchor="none" style="mix-blend-mode: normal" data-fill-palette-color="primary" opacity="1"></path></g></svg></g></svg></g><g transform="matrix(1,0,0,1,0,149.18328380076466)"><svg viewBox="0 0 232.20979200000002 28.92543213687733" height="28.92543213687733" width="232.20979200000002"><g transform="matrix(1,0,0,1,0,0)"><svg width="232.20979200000002" viewBox="0.5900000333786011 -37.5 386.6499938964844 48.16999816894531" height="28.92543213687733" data-palette-color="#0023ff"><path d="M4.15-35.55L14.92-16.16 25.78-35.55 29.25-35.55 16.41-13.38 16.41 0 13.4 0 13.4-13.38 0.59-35.55 4.15-35.55ZM30.54-13.01L30.54-13.6Q30.54-17.41 32.02-20.46 33.49-23.51 36.19-25.21 38.89-26.9 42.31-26.9L42.31-26.9Q47.58-26.9 50.85-23.21 54.12-19.51 54.12-13.4L54.12-13.4 54.12-12.79Q54.12-8.96 52.65-5.9 51.17-2.83 48.48-1.17 45.8 0.49 42.36 0.49L42.36 0.49Q37.11 0.49 33.82-3.21 30.54-6.91 30.54-13.01L30.54-13.01ZM33.47-13.33L33.47-12.79Q33.47-8.06 35.92-5.02 38.38-1.98 42.36-1.98L42.36-1.98Q46.31-1.98 48.76-5.02 51.22-8.06 51.22-13.04L51.22-13.04 51.22-13.6Q51.22-16.63 50.1-19.14 48.97-21.66 46.95-23.03 44.92-24.41 42.31-24.41L42.31-24.41Q38.4-24.41 35.94-21.35 33.47-18.29 33.47-13.33L33.47-13.33ZM77.19 0L77.14-3.34Q74.51 0.49 68.72 0.49L68.72 0.49Q64.5 0.49 62.3-1.97 60.1-4.42 60.05-9.23L60.05-9.23 60.05-26.42 62.96-26.42 62.96-9.59Q62.96-2.05 69.06-2.05L69.06-2.05Q75.41-2.05 77.09-7.3L77.09-7.3 77.09-26.42 80.02-26.42 80.02 0 77.19 0ZM99.89-26.59L99.82-23.93Q98.89-24.1 97.84-24.1L97.84-24.1Q95.11-24.1 93.22-22.57 91.33-21.04 90.52-18.14L90.52-18.14 90.52 0 87.61 0 87.61-26.42 90.47-26.42 90.52-22.22Q92.84-26.9 97.97-26.9L97.97-26.9Q99.19-26.9 99.89-26.59L99.89-26.59ZM126.99 0L117.27 0 117.27-35.55 127.21-35.55Q131.58-35.55 135.05-33.56 138.51-31.57 140.45-27.86 142.39-24.15 142.39-19.41L142.39-19.41 142.39-16.14Q142.39-11.38 140.47-7.69 138.54-4 135.03-2 131.53 0 126.99 0L126.99 0ZM127.26-32.98L120.28-32.98 120.28-2.54 127.01-2.54Q132.63-2.54 136.02-6.26 139.42-9.99 139.42-16.33L139.42-16.33 139.42-19.46Q139.42-25.59 136.07-29.27 132.73-32.96 127.26-32.98L127.26-32.98ZM169.13 0L166 0Q165.56-1.25 165.44-3.69L165.44-3.69Q163.9-1.68 161.52-0.6 159.14 0.49 156.48 0.49L156.48 0.49Q152.67 0.49 150.31-1.64 147.96-3.76 147.96-7.01L147.96-7.01Q147.96-10.86 151.17-13.11 154.38-15.36 160.12-15.36L160.12-15.36 165.41-15.36 165.41-18.36Q165.41-21.19 163.67-22.81 161.92-24.44 158.58-24.44L158.58-24.44Q155.53-24.44 153.53-22.88 151.52-21.31 151.52-19.12L151.52-19.12 148.59-19.14Q148.59-22.29 151.52-24.6 154.45-26.9 158.73-26.9L158.73-26.9Q163.14-26.9 165.7-24.69 168.25-22.49 168.32-18.53L168.32-18.53 168.32-6.03Q168.32-2.2 169.13-0.29L169.13-0.29 169.13 0ZM156.82-2.1L156.82-2.1Q159.75-2.1 162.06-3.52 164.36-4.93 165.41-7.3L165.41-7.3 165.41-13.11 160.19-13.11Q155.82-13.06 153.35-11.51 150.89-9.96 150.89-7.25L150.89-7.25Q150.89-5.03 152.54-3.56 154.18-2.1 156.82-2.1ZM177.72-33.18L180.65-33.18 180.65-26.42 186.12-26.42 186.12-24.02 180.65-24.02 180.65-6.42Q180.65-4.22 181.44-3.15 182.23-2.08 184.09-2.08L184.09-2.08Q184.82-2.08 186.46-2.32L186.46-2.32 186.58 0.07Q185.43 0.49 183.45 0.49L183.45 0.49Q180.45 0.49 179.08-1.26 177.72-3 177.72-6.4L177.72-6.4 177.72-24.02 172.86-24.02 172.86-26.42 177.72-26.42 177.72-33.18ZM211.97 0L208.84 0Q208.4-1.25 208.28-3.69L208.28-3.69Q206.74-1.68 204.36-0.6 201.98 0.49 199.32 0.49L199.32 0.49Q195.51 0.49 193.16-1.64 190.8-3.76 190.8-7.01L190.8-7.01Q190.8-10.86 194.01-13.11 197.22-15.36 202.96-15.36L202.96-15.36 208.26-15.36 208.26-18.36Q208.26-21.19 206.51-22.81 204.77-24.44 201.42-24.44L201.42-24.44Q198.37-24.44 196.37-22.88 194.36-21.31 194.36-19.12L194.36-19.12 191.44-19.14Q191.44-22.29 194.36-24.6 197.29-26.9 201.57-26.9L201.57-26.9Q205.99-26.9 208.54-24.69 211.09-22.49 211.16-18.53L211.16-18.53 211.16-6.03Q211.16-2.2 211.97-0.29L211.97-0.29 211.97 0ZM199.66-2.1L199.66-2.1Q202.59-2.1 204.9-3.52 207.21-4.93 208.26-7.3L208.26-7.3 208.26-13.11 203.03-13.11Q198.66-13.06 196.2-11.51 193.73-9.96 193.73-7.25L193.73-7.25Q193.73-5.03 195.38-3.56 197.03-2.1 199.66-2.1ZM254.66 0L250.98-9.96 234.84-9.96 231.18 0 228.03 0 241.48-35.55 244.34-35.55 257.79 0 254.66 0ZM242.89-31.88L235.77-12.52 250.02-12.52 242.89-31.88ZM272.09-1.98L272.09-1.98Q275.14-1.98 277.21-3.7 279.27-5.42 279.44-8.15L279.44-8.15 282.25-8.15Q282.13-5.74 280.73-3.75 279.34-1.76 277.04-0.63 274.73 0.49 272.09 0.49L272.09 0.49Q266.89 0.49 263.85-3.13 260.81-6.74 260.81-12.84L260.81-12.84 260.81-13.72Q260.81-17.63 262.18-20.63 263.55-23.63 266.1-25.27 268.65-26.9 272.07-26.9L272.07-26.9Q276.41-26.9 279.23-24.32 282.05-21.73 282.25-17.5L282.25-17.5 279.44-17.5Q279.24-20.61 277.21-22.51 275.17-24.41 272.07-24.41L272.07-24.41Q268.11-24.41 265.93-21.56 263.74-18.7 263.74-13.55L263.74-13.55 263.74-12.7Q263.74-7.64 265.93-4.81 268.11-1.98 272.09-1.98ZM286.47-13.01L286.47-13.6Q286.47-17.41 287.95-20.46 289.42-23.51 292.12-25.21 294.82-26.9 298.24-26.9L298.24-26.9Q303.51-26.9 306.78-23.21 310.05-19.51 310.05-13.4L310.05-13.4 310.05-12.79Q310.05-8.96 308.58-5.9 307.1-2.83 304.41-1.17 301.73 0.49 298.29 0.49L298.29 0.49Q293.04 0.49 289.75-3.21 286.47-6.91 286.47-13.01L286.47-13.01ZM289.4-13.33L289.4-12.79Q289.4-8.06 291.85-5.02 294.31-1.98 298.29-1.98L298.29-1.98Q302.24-1.98 304.69-5.02 307.15-8.06 307.15-13.04L307.15-13.04 307.15-13.6Q307.15-16.63 306.02-19.14 304.9-21.66 302.88-23.03 300.85-24.41 298.24-24.41L298.24-24.41Q294.33-24.41 291.86-21.35 289.4-18.29 289.4-13.33L289.4-13.33ZM319.35-37.5L319.35 0 316.42 0 316.42-37.5 319.35-37.5ZM327.46-26.42L335.66-4.2 343.37-26.42 346.52-26.42 335.24 4.49 334.66 5.86Q332.48 10.67 327.94 10.67L327.94 10.67Q326.89 10.67 325.7 10.33L325.7 10.33 325.67 7.91 327.19 8.06Q329.34 8.06 330.67 6.99 332 5.93 332.92 3.34L332.92 3.34 334.22-0.22 324.26-26.42 327.46-26.42ZM352.65-33.18L355.58-33.18 355.58-26.42 361.05-26.42 361.05-24.02 355.58-24.02 355.58-6.42Q355.58-4.22 356.37-3.15 357.16-2.08 359.02-2.08L359.02-2.08Q359.75-2.08 361.39-2.32L361.39-2.32 361.51 0.07Q360.36 0.49 358.39 0.49L358.39 0.49Q355.38 0.49 354.02-1.26 352.65-3 352.65-6.4L352.65-6.4 352.65-24.02 347.79-24.02 347.79-26.42 352.65-26.42 352.65-33.18ZM377.33 0.49L377.33 0.49Q373.96 0.49 371.24-1.17 368.51-2.83 367-5.8 365.49-8.76 365.49-12.45L365.49-12.45 365.49-13.5Q365.49-17.31 366.96-20.36 368.44-23.41 371.08-25.16 373.71-26.9 376.79-26.9L376.79-26.9Q381.6-26.9 384.42-23.62 387.24-20.34 387.24-14.65L387.24-14.65 387.24-13.01 368.39-13.01 368.39-12.45Q368.39-7.96 370.97-4.97 373.54-1.98 377.45-1.98L377.45-1.98Q379.79-1.98 381.59-2.83 383.38-3.69 384.85-5.57L384.85-5.57 386.68-4.17Q383.46 0.49 377.33 0.49ZM376.79-24.41L376.79-24.41Q373.5-24.41 371.24-22 368.98-19.58 368.49-15.5L368.49-15.5 384.34-15.5 384.34-15.82Q384.21-19.63 382.16-22.02 380.11-24.41 376.79-24.41Z" opacity="1" transform="matrix(1,0,0,1,0,0)" fill="#0023ff" class="undefined-text-1" data-fill-palette-color="secondary" id="text-1"></path></svg></g></svg></g></svg></g></svg></g><g transform="matrix(1,0,0,1,0,0.44527178984409943)"><svg viewBox="0 0 143.77853099704583 178.108715937642" height="178.108715937642" width="143.77853099704583"><g><svg xmlns="http://www.w3.org/2000/svg" xmlns:xlink="http://www.w3.org/1999/xlink" version="1.1" x="0" y="0" viewBox="9.613998413085938 0.00047719478607177734 80.77400970458984 100.0605239868164" enable-background="new 0 0 100 100" xml:space="preserve" width="143.77853099704583" height="178.108715937642" class="icon-icon-0" data-fill-palette-color="accent" id="icon-0"><path fill="#0023ff" d="M90.386 16.252c0-0.012 0.001-0.024 0-0.036 0-0.019-0.003-0.039-0.003-0.058-0.002-0.033-0.003-0.065-0.006-0.097-0.003-0.031-0.006-0.062-0.009-0.092-0.004-0.032-0.008-0.064-0.012-0.096-0.004-0.03-0.01-0.061-0.015-0.091-0.006-0.032-0.012-0.063-0.019-0.095-0.006-0.03-0.014-0.06-0.021-0.089-0.008-0.031-0.016-0.062-0.025-0.092-0.008-0.029-0.017-0.058-0.027-0.087-0.01-0.03-0.02-0.06-0.031-0.091-0.01-0.028-0.021-0.057-0.032-0.085-0.012-0.03-0.024-0.059-0.037-0.089-0.012-0.027-0.024-0.054-0.037-0.082-0.014-0.029-0.029-0.058-0.044-0.087-0.013-0.026-0.027-0.052-0.042-0.078-0.016-0.029-0.033-0.057-0.05-0.084-0.015-0.025-0.03-0.05-0.046-0.074-0.018-0.028-0.037-0.055-0.056-0.082-0.017-0.024-0.033-0.047-0.05-0.071-0.02-0.027-0.041-0.053-0.061-0.079-0.018-0.023-0.036-0.045-0.055-0.067-0.022-0.025-0.044-0.05-0.067-0.075-0.019-0.021-0.038-0.043-0.058-0.063-0.023-0.024-0.048-0.047-0.072-0.071-0.021-0.02-0.042-0.04-0.063-0.06-0.025-0.022-0.051-0.044-0.076-0.065-0.023-0.019-0.045-0.038-0.068-0.056-0.026-0.021-0.053-0.04-0.08-0.06-0.024-0.018-0.048-0.035-0.072-0.052-0.028-0.019-0.057-0.037-0.085-0.055-0.025-0.016-0.05-0.032-0.076-0.047-0.005-0.003-0.01-0.006-0.015-0.009-0.026-0.015-0.053-0.029-0.08-0.043-0.02-0.011-0.04-0.023-0.061-0.034L62.276 0.306c-0.849-0.43-1.858-0.405-2.685 0.068L48.595 6.658c-0.013 0.007-0.025 0.016-0.037 0.023-0.013 0.008-0.027 0.015-0.04 0.023-0.015 0.01-0.03 0.02-0.045 0.03-0.025 0.016-0.051 0.033-0.076 0.05-0.027 0.018-0.053 0.038-0.079 0.057-0.024 0.018-0.048 0.036-0.072 0.054-0.026 0.02-0.05 0.041-0.075 0.062-0.023 0.019-0.045 0.038-0.067 0.058-0.024 0.022-0.048 0.045-0.071 0.068-0.021 0.02-0.042 0.04-0.062 0.061-0.023 0.024-0.046 0.049-0.068 0.074-0.019 0.021-0.038 0.041-0.056 0.063-0.022 0.026-0.043 0.053-0.064 0.08-0.017 0.021-0.034 0.042-0.051 0.064C47.71 7.451 47.69 7.48 47.67 7.509c-0.015 0.022-0.03 0.043-0.044 0.064-0.021 0.032-0.04 0.065-0.06 0.098-0.012 0.02-0.024 0.039-0.035 0.059-0.027 0.048-0.052 0.096-0.075 0.145-0.008 0.017-0.016 0.033-0.024 0.05-0.02 0.044-0.041 0.089-0.059 0.135-0.009 0.024-0.018 0.048-0.026 0.072-0.012 0.034-0.025 0.067-0.036 0.101-0.009 0.027-0.016 0.055-0.024 0.082-0.009 0.032-0.019 0.063-0.027 0.095-0.007 0.029-0.014 0.058-0.02 0.088-0.007 0.031-0.014 0.062-0.02 0.093-0.006 0.03-0.01 0.061-0.015 0.091-0.005 0.031-0.01 0.062-0.014 0.093-0.004 0.031-0.006 0.062-0.009 0.093-0.003 0.031-0.006 0.062-0.007 0.093-0.002 0.031-0.002 0.063-0.003 0.095 0 0.02-0.002 0.04-0.002 0.061V16.3L24.72 4.927c-0.849-0.43-1.858-0.405-2.684 0.068L11.04 11.279c-0.012 0.007-0.024 0.015-0.036 0.022-0.014 0.008-0.028 0.015-0.041 0.024-0.016 0.01-0.031 0.021-0.046 0.03-0.025 0.016-0.049 0.032-0.073 0.048-0.028 0.019-0.054 0.038-0.081 0.058-0.024 0.018-0.048 0.035-0.071 0.054-0.026 0.02-0.05 0.041-0.075 0.062-0.023 0.019-0.045 0.038-0.068 0.058-0.024 0.022-0.047 0.044-0.07 0.066-0.021 0.021-0.043 0.041-0.064 0.063-0.022 0.023-0.044 0.047-0.065 0.071-0.02 0.022-0.04 0.043-0.059 0.066-0.021 0.025-0.041 0.05-0.061 0.075-0.018 0.023-0.037 0.045-0.054 0.068-0.02 0.027-0.038 0.054-0.057 0.081-0.016 0.023-0.033 0.046-0.048 0.069-0.019 0.03-0.037 0.06-0.055 0.09-0.013 0.022-0.027 0.044-0.04 0.066-0.023 0.041-0.044 0.083-0.065 0.125-0.014 0.027-0.027 0.055-0.039 0.083-0.018 0.04-0.037 0.08-0.053 0.121-0.01 0.025-0.018 0.049-0.027 0.074-0.012 0.033-0.025 0.065-0.036 0.099-0.009 0.027-0.016 0.054-0.024 0.082-0.009 0.032-0.019 0.063-0.027 0.096-0.007 0.028-0.013 0.057-0.02 0.086-0.007 0.032-0.015 0.063-0.021 0.095-0.006 0.029-0.01 0.059-0.014 0.089-0.005 0.032-0.01 0.063-0.014 0.095-0.004 0.03-0.006 0.061-0.009 0.091-0.003 0.032-0.006 0.064-0.008 0.096-0.002 0.031-0.002 0.062-0.003 0.093 0 0.021-0.002 0.041-0.002 0.062V79c0 1.067 0.6 2.043 1.552 2.526l26.559 13.459c0.403 0.204 0.842 0.306 1.28 0.306 0.515 0 1.029-0.14 1.482-0.419 0.006-0.004 0.012-0.008 0.018-0.012l3.311-1.894 13.396 6.789c0.403 0.204 0.842 0.306 1.28 0.306 0.515 0 1.029-0.14 1.483-0.419 0.007-0.004 0.013-0.009 0.02-0.013l10.9-6.236c0.882-0.504 1.425-1.442 1.425-2.458V64.395l2.961 1.5c0.403 0.204 0.842 0.306 1.28 0.306 0.515 0 1.029-0.14 1.482-0.419 0.007-0.004 0.014-0.01 0.021-0.014l10.899-6.235c0.881-0.504 1.425-1.442 1.425-2.458V16.287C90.387 16.275 90.386 16.264 90.386 16.252zM61.077 6.047l20.509 10.39-5.108 2.919L55.969 8.966 61.077 6.047zM36.172 87.85l-20.896-10.59V18.346l20.896 10.588V87.85zM38.922 23.977l-20.508-10.39 5.108-2.919 20.509 10.39L38.922 23.977zM47.169 84.522l-5.333 3.051V28.836l5.333-3.048v18.07V84.522zM55.659 92.619l-5.96-3.021 1.707-0.977c0.881-0.504 1.425-1.442 1.425-2.458V61.758l2.828 1.433V92.619zM58.409 58.234l-5.577-2.826v-5.507l10.685 5.413L58.409 58.234zM66.655 89.292l-5.333 3.051v-29.25l5.333-3.048V89.292zM72.317 55.131c0-0.013 0.001-0.025 0.001-0.038-0.001-0.02-0.003-0.041-0.004-0.061-0.001-0.031-0.003-0.062-0.006-0.093-0.003-0.032-0.006-0.065-0.01-0.098-0.003-0.03-0.007-0.06-0.011-0.09-0.005-0.033-0.01-0.065-0.016-0.097-0.006-0.029-0.011-0.059-0.018-0.088-0.007-0.032-0.014-0.064-0.022-0.095-0.008-0.029-0.015-0.058-0.024-0.087-0.009-0.031-0.018-0.062-0.028-0.093-0.009-0.029-0.019-0.057-0.029-0.085-0.011-0.03-0.022-0.06-0.034-0.089-0.011-0.028-0.023-0.057-0.035-0.084-0.012-0.029-0.025-0.057-0.038-0.085-0.014-0.028-0.028-0.056-0.042-0.084-0.014-0.027-0.028-0.054-0.043-0.08-0.016-0.028-0.032-0.056-0.049-0.083-0.015-0.025-0.03-0.05-0.046-0.075-0.018-0.028-0.037-0.055-0.056-0.082-0.017-0.023-0.033-0.047-0.05-0.07-0.02-0.027-0.041-0.054-0.063-0.08-0.018-0.022-0.035-0.044-0.053-0.065-0.022-0.026-0.046-0.052-0.069-0.077-0.019-0.02-0.037-0.041-0.057-0.061-0.024-0.025-0.05-0.049-0.075-0.073-0.02-0.019-0.04-0.038-0.06-0.057-0.026-0.023-0.052-0.045-0.079-0.068-0.022-0.018-0.043-0.036-0.065-0.054-0.027-0.021-0.055-0.041-0.083-0.062-0.023-0.017-0.046-0.034-0.07-0.051-0.028-0.019-0.057-0.037-0.086-0.056-0.025-0.016-0.049-0.032-0.075-0.047-0.005-0.003-0.01-0.006-0.014-0.009-0.027-0.015-0.054-0.029-0.081-0.043-0.02-0.011-0.04-0.023-0.061-0.034l-17.935-9.086V20.908v-7.183l20.896 10.588V58.76l-1.409-0.714v-2.882C72.319 55.153 72.317 55.142 72.317 55.131zM84.724 55.433l-5.333 3.051V24.215l5.333-3.048V55.433z" data-fill-palette-color="accent"></path></svg></g></svg></g></svg></g><defs></defs></svg><rect width="395.52" height="123.2996894130095" fill="none" stroke="none" visibility="hidden"></rect></g></svg></g></svg>