<?xml version="1.0" standalone="no"?>
<!DOCTYPE svg PUBLIC "-//W3C//DTD SVG 20010904//EN"
 "http://www.w3.org/TR/2001/REC-SVG-20010904/DTD/svg10.dtd">
<svg version="1.0" xmlns="http://www.w3.org/2000/svg"
 width="200.000000pt" height="200.000000pt" viewBox="0 0 200.000000 200.000000"
 preserveAspectRatio="xMidYMid meet">

<g transform="translate(0.000000,200.000000) scale(0.100000,-0.100000)"
fill="#000000" stroke="none">
<path d="M190 1000 l0 -810 810 0 810 0 0 810 0 810 -810 0 -810 0 0 -810z
m1600 180 l0 -610 -24 0 c-51 0 -59 -52 -11 -70 26 -10 32 -24 16 -35 -5 -3
-17 2 -26 11 -20 20 -33 11 -15 -11 7 -8 23 -15 36 -15 24 0 24 0 24 -125 l0
-125 -790 0 -790 0 0 133 c0 96 4 138 14 152 12 17 13 17 20 -8 3 -15 11 -27
17 -27 10 0 5 30 -11 60 -5 8 -1 29 11 52 15 29 16 38 6 38 -8 0 -19 -10 -24
-23 -28 -59 -33 32 -33 624 l0 589 790 0 790 0 0 -610z m-12 -632 c16 -16 15
-38 0 -38 -23 0 -41 18 -35 34 8 19 19 20 35 4z m-1561 -30 c-3 -8 -6 -5 -6 6
-1 11 2 17 5 13 3 -3 4 -12 1 -19z"/>
<path d="M1130 1170 l0 -380 70 0 70 0 0 380 0 380 -70 0 -70 0 0 -380z"/>
<path d="M647 603 c-4 -3 -7 -39 -7 -80 0 -71 1 -73 24 -73 56 0 88 98 46 140
-20 20 -50 26 -63 13z m53 -32 c5 -11 10 -30 10 -43 0 -26 -25 -68 -41 -68
-10 0 -12 52 -3 99 7 36 19 40 34 12z"/>
<path d="M1072 598 c-21 -21 -14 -56 18 -80 31 -23 41 -58 15 -58 -7 0 -18 8
-24 17 -5 10 -13 15 -17 11 -11 -12 17 -38 41 -38 12 0 28 7 35 15 11 13 7 22
-24 54 -29 30 -36 44 -31 61 9 27 39 22 43 -8 5 -32 24 -27 20 6 -2 22 -9 28
-33 30 -17 2 -36 -3 -43 -10z"/>
<path d="M1480 595 c0 -8 5 -15 10 -15 6 0 10 7 10 15 0 8 -4 15 -10 15 -5 0
-10 -7 -10 -15z"/>
<path d="M290 525 l0 -75 35 0 c19 0 35 5 35 10 0 6 -12 10 -26 10 l-26 0 7
65 c6 56 4 65 -9 65 -13 0 -16 -13 -16 -75z"/>
<path d="M480 537 c0 -67 10 -87 45 -87 31 0 45 19 45 61 0 41 -20 64 -50 56
-15 -4 -20 0 -20 14 0 10 -4 19 -10 19 -6 0 -10 -28 -10 -63z m74 -12 c8 -31
-10 -67 -31 -63 -37 7 -32 88 6 88 12 0 21 -9 25 -25z"/>
<path d="M860 586 c0 -8 -6 -17 -12 -20 -10 -5 -10 -7 0 -12 7 -3 12 -25 12
-55 0 -27 5 -49 10 -49 6 0 10 22 10 49 0 30 5 52 13 55 10 5 10 7 0 12 -7 3
-13 12 -13 20 0 8 -4 14 -10 14 -5 0 -10 -6 -10 -14z"/>
<path d="M1270 525 c0 -43 4 -75 10 -75 6 0 10 32 10 75 0 43 -4 75 -10 75 -6
0 -10 -32 -10 -75z"/>
<path d="M1430 586 c0 -8 -6 -17 -12 -20 -10 -5 -10 -7 0 -12 7 -3 12 -25 12
-55 0 -27 5 -49 10 -49 6 0 10 22 10 49 0 30 5 52 13 55 10 5 10 7 0 12 -7 3
-13 12 -13 20 0 8 -4 14 -10 14 -5 0 -10 -6 -10 -14z"/>
<path d="M384 556 c-10 -8 -16 -18 -12 -22 4 -4 14 -1 23 6 17 14 45 7 45 -13
0 -9 -8 -13 -23 -10 -27 5 -50 -18 -45 -44 2 -14 13 -18 46 -19 l42 -2 0 43
c0 65 -34 92 -76 61z m52 -67 c7 -12 -12 -29 -33 -29 -7 0 -13 9 -13 20 0 22
34 28 46 9z"/>
<path d="M763 563 c-7 -2 -13 -12 -13 -21 0 -12 3 -13 12 -4 18 18 48 15 48
-6 0 -13 -8 -18 -26 -17 -30 0 -50 -24 -41 -49 4 -11 19 -16 47 -16 l40 0 0
48 c0 63 -22 84 -67 65z m47 -77 c0 -16 -27 -29 -41 -20 -19 11 -9 34 16 34
15 0 25 -6 25 -14z"/>
<path d="M920 555 c-7 -9 -9 -19 -5 -23 4 -4 10 -1 12 6 4 11 43 18 43 8 0 -2
3 -12 7 -22 5 -14 3 -16 -12 -11 -37 15 -72 -14 -58 -48 4 -11 17 -15 44 -13
l39 2 0 46 c0 25 -5 51 -12 58 -17 17 -43 15 -58 -3z m53 -70 c-1 -5 -8 -14
-17 -20 -18 -11 -42 7 -31 25 8 13 51 9 48 -5z"/>
<path d="M1176 554 c-31 -30 -12 -104 27 -104 33 0 47 18 47 60 0 56 -39 79
-74 44z m59 -24 c6 -20 -10 -70 -23 -70 -28 0 -44 64 -21 87 15 15 37 6 44
-17z"/>
<path d="M1532 558 c-16 -16 -15 -69 1 -92 34 -47 92 11 71 72 -10 30 -50 42
-72 20z m58 -43 c0 -38 -20 -61 -38 -43 -16 16 -15 75 1 81 24 8 37 -5 37 -38z"/>
<path d="M1310 528 c0 -70 25 -99 58 -66 9 9 12 9 13 -2 2 -25 17 33 18 68 1
47 -13 39 -30 -15 -17 -57 -34 -55 -34 5 0 27 -4 42 -12 42 -8 0 -13 -13 -13
-32z"/>
<path d="M1480 505 c0 -30 5 -55 10 -55 6 0 10 25 10 55 0 30 -4 55 -10 55 -5
0 -10 -25 -10 -55z"/>
<path d="M1628 504 c4 -60 11 -62 27 -6 15 54 35 53 35 -2 0 -28 5 -46 11 -46
8 0 10 16 6 51 -8 61 -12 67 -37 51 -12 -7 -20 -8 -20 -2 0 5 -6 10 -12 10 -9
0 -12 -16 -10 -56z"/>
<path d="M546 321 c4 -8 10 -27 13 -42 6 -28 6 -28 23 14 13 31 14 37 3 23
-15 -20 -15 -20 -31 0 -8 10 -12 13 -8 5z"/>
<path d="M860 321 c0 -5 -9 -11 -21 -14 -29 -8 -22 -51 9 -55 20 -3 22 1 22
37 0 23 -2 41 -5 41 -3 0 -5 -4 -5 -9z m0 -41 c0 -11 -7 -20 -15 -20 -8 0 -15
9 -15 20 0 11 7 20 15 20 8 0 15 -9 15 -20z"/>
<path d="M1263 290 c0 -25 2 -35 4 -22 2 12 2 32 0 45 -2 12 -4 2 -4 -23z"/>
<path d="M952 288 c2 -17 9 -33 16 -34 7 -1 8 0 2 3 -14 7 -13 40 2 45 7 3 5
7 -6 11 -15 6 -17 2 -14 -25z"/>
<path d="M1337 309 c-9 -6 -17 -18 -17 -27 0 -13 -5 -12 -20 8 l-20 25 12 -32
c15 -39 25 -42 34 -8 3 14 10 25 15 25 5 0 9 -11 9 -25 0 -17 5 -25 18 -25 13
0 14 2 3 9 -8 5 -12 18 -8 30 6 26 -3 33 -26 20z"/>
<path d="M614 296 c-9 -24 4 -48 23 -44 12 2 18 12 18 28 0 29 -32 41 -41 16z
m36 -16 c0 -11 -7 -20 -15 -20 -8 0 -15 9 -15 20 0 11 7 20 15 20 8 0 15 -9
15 -20z"/>
<path d="M681 283 c-1 -29 2 -33 24 -33 22 0 25 4 24 33 -1 29 -2 29 -8 8 -9
-35 -29 -37 -34 -4 -4 27 -4 27 -6 -4z"/>
<path d="M740 280 c0 -16 5 -30 10 -30 6 0 10 11 10 24 0 13 6 27 13 29 6 3 2
6 -10 6 -19 1 -23 -4 -23 -29z"/>
<path d="M903 303 c18 -5 24 -43 7 -43 -5 0 -10 5 -10 11 0 5 -5 7 -10 4 -15
-9 -2 -25 21 -25 14 0 19 7 19 30 0 25 -4 30 -22 29 -17 -1 -19 -2 -5 -6z"/>
<path d="M1003 303 c9 -2 17 -13 17 -24 0 -21 -16 -26 -23 -6 -3 7 -6 5 -6 -5
-1 -13 7 -18 24 -18 15 0 25 6 25 14 0 29 -13 46 -34 45 -16 -1 -17 -2 -3 -6z"/>
<path d="M1098 304 c14 -6 17 -44 3 -44 -5 0 -12 6 -14 13 -3 7 -6 5 -6 -5 -1
-13 7 -18 25 -18 22 0 25 4 22 27 -2 19 -9 29 -23 30 -11 2 -14 0 -7 -3z"/>
<path d="M1144 295 c-9 -23 3 -45 23 -44 17 1 17 2 1 6 -10 2 -18 13 -18 23 0
10 8 21 18 23 16 4 16 5 -1 6 -10 0 -20 -6 -23 -14z"/>
<path d="M1197 296 c-10 -26 4 -47 27 -44 15 2 21 10 21 28 0 29 -38 41 -48
16z m39 -7 c10 -17 -13 -36 -27 -22 -12 12 -4 33 11 33 5 0 12 -5 16 -11z"/>
<path d="M1390 295 c-15 -18 3 -46 29 -44 13 1 13 2 -1 6 -19 5 -25 43 -8 43
6 0 10 -4 10 -10 0 -5 4 -10 10 -10 5 0 7 7 4 15 -4 8 -12 15 -19 15 -7 0 -18
-7 -25 -15z"/>
</g>
</svg>
